<?xml version="1.0" standalone="no"?><svg xmlns:xlink="http://www.w3.org/1999/xlink" xmlns="http://www.w3.org/2000/svg" viewBox="0 0 1000 625" preserveAspectRatio="xMaxYMax slice"><g transform="scale(0.8865248226950354)"><rect x="0" y="0" width="1128" height="705" fill="#ffffff"/><rect x="0" y="0" width="70.5" height="70.5" fill="#ffffff"/><rect x="0" y="0" width="35.25" height="35.25" fill="#42106E"/><polygon points="35.25,0 35.25,35.25 0,35.25" fill="#42106E"/><rect x="35.25" y="0" width="35.25" height="35.25" fill="#42106E"/><polygon points="35.25,0 70.5,35.25 35.25,35.25" fill="#9725FA"/><rect x="0" y="35.25" width="35.25" height="35.25" fill="#42106E"/><polygon points="0,35.25 35.25,35.25 0,70.5" fill="#9725FA"/><rect x="35.25" y="35.25" width="35.25" height="35.25" fill="#9725FA"/><polygon points="35.25,35.25 70.5,35.25 70.5,70.5" fill="#9725FA"/><rect x="70.5" y="0" width="70.5" height="70.5" fill="#ffffff"/><rect x="70.5" y="0" width="35.25" height="35.25" fill="#9725FA"/><path d="M 70.5 35.25 A 35.25 35.25 0 0 1 105.75 0 L 105.75 8.8125 A 26.4375 26.4375 0 0 0 79.3125 35.25" fill="#42106E"/><rect x="105.75" y="0" width="35.25" height="35.25" fill="#42106E"/><path d="M 105.75 0 A 35.25 35.25 0 0 1 141 35.25 L 132.1875 35.25 A 26.4375 26.4375 0 0 0 105.75 8.8125" fill="#9725FA"/><rect x="70.5" y="35.25" width="35.25" height="35.25" fill="#9725FA"/><path d="M 70.5 35.25 A 35.25 35.25 0 0 0 105.75 70.5 L 105.75 61.6875 A 26.4375 26.4375 0 0 1 79.3125 35.25" fill="#42106E"/><rect x="105.75" y="35.25" width="35.25" height="35.25" fill="#9725FA"/><path d="M 105.75 70.5 A 35.25 35.25 0 0 0 141 35.25 L 132.1875 35.25 A 26.4375 26.4375 0 0 1 105.75 61.6875" fill="#42106E"/><rect x="141" y="0" width="70.5" height="70.5" fill="#ffffff"/><rect x="141" y="0" width="35.25" height="35.25" fill="#9725FA"/><polygon points="176.25,0 176.25,35.25 141,35.25" fill="#42106E"/><rect x="176.25" y="0" width="35.25" height="35.25" fill="#42106E"/><polygon points="176.25,0 211.5,35.25 176.25,35.25" fill="#9725FA"/><rect x="141" y="35.25" width="35.25" height="35.25" fill="#42106E"/><polygon points="141,35.25 176.25,35.25 141,70.5" fill="#42106E"/><rect x="176.25" y="35.25" width="35.25" height="35.25" fill="#42106E"/><polygon points="176.25,35.25 211.5,35.25 211.5,70.5" fill="#42106E"/><rect x="211.5" y="0" width="70.5" height="70.5" fill="#ffffff"/><rect x="211.5" y="0" width="35.25" height="35.25" fill="#42106E"/><polygon points="246.75,0 246.75,35.25 211.5,35.25" fill="#42106E"/><rect x="246.75" y="0" width="35.25" height="35.25" fill="#42106E"/><polygon points="246.75,0 282,35.25 246.75,35.25" fill="#9725FA"/><rect x="211.5" y="35.25" width="35.25" height="35.25" fill="#9725FA"/><polygon points="211.5,35.25 246.75,35.25 211.5,70.5" fill="#9725FA"/><rect x="246.75" y="35.25" width="35.25" height="35.25" fill="#42106E"/><polygon points="246.75,35.25 282,35.25 282,70.5" fill="#42106E"/><rect x="282" y="0" width="70.5" height="70.5" fill="#ffffff"/><rect x="282" y="0" width="35.25" height="35.25" fill="#9725FA"/><path d="M 282 35.25 A 35.25 35.25 0 0 0 317.25 0 L 282 0" fill="#9725FA"/><rect x="317.25" y="0" width="35.25" height="35.25" fill="#9725FA"/><path d="M 317.25 0 A 35.25 35.25 0 0 0 352.5 35.25 L 352.5 0" fill="#9725FA"/><rect x="282" y="35.25" width="35.25" height="35.25" fill="#9725FA"/><path d="M 282 35.25 A 35.25 35.25 0 0 1 317.25 70.5 L 282 70.5" fill="#42106E"/><rect x="317.25" y="35.25" width="35.25" height="35.25" fill="#9725FA"/><path d="M 317.25 70.5 A 35.25 35.25 0 0 1  352.5 35.25 L 352.5 70.5" fill="#42106E"/><rect x="352.5" y="0" width="70.5" height="70.5" fill="#ffffff"/><rect x="352.5" y="0" width="35.25" height="35.25" fill="#42106E"/><path d="M 352.5 0 A 35.25 35.25 0 0 1 387.75 35.25 L 352.5 35.25" fill="#9725FA"/><rect x="387.75" y="0" width="35.25" height="35.25" fill="#9725FA"/><path d="M 387.75 35.25 A 35.25 35.25 0 0 1  423 0 L 423 35.25" fill="#42106E"/><rect x="352.5" y="35.25" width="35.25" height="35.25" fill="#42106E"/><path d="M 352.5 70.5 A 35.25 35.25 0 0 0 387.75 35.25 L 352.5 35.25" fill="#42106E"/><rect x="387.75" y="35.25" width="35.25" height="35.25" fill="#42106E"/><path d="M 387.75 35.25 A 35.25 35.25 0 0 0 423 70.5 L 423 35.25" fill="#42106E"/><rect x="423" y="0" width="70.5" height="70.5" fill="#42106E"/><polygon points="423,0 493.5,0 493.5,70.5" fill="#42106E"/><rect x="493.5" y="0" width="70.5" height="70.5" fill="#42106E"/><path d="M 493.5 0 A 70.5 70.5 0 0 1  564 70.5 L 493.5 0 A 70.5 70.5 0 0 0 564 70.5" fill="#9725FA"/><rect x="564" y="0" width="70.5" height="70.5" fill="#9725FA"/><polygon points="564,0 634.5,70.5 564,70.5" fill="#9725FA"/><rect x="634.5" y="0" width="70.5" height="70.5" fill="#ffffff"/><rect x="634.5" y="0" width="35.25" height="35.25" fill="#9725FA"/><path d="M 634.5 35.25 A 35.25 35.25 0 0 1  669.75 0 L 669.75 35.25" fill="#42106E"/><rect x="669.75" y="0" width="35.25" height="35.25" fill="#9725FA"/><path d="M 669.75 0 A 35.25 35.25 0 0 1 705 35.25 L 669.75 35.25" fill="#42106E"/><rect x="634.5" y="35.25" width="35.25" height="35.25" fill="#9725FA"/><path d="M 634.5 35.25 A 35.25 35.25 0 0 0 669.75 70.5 L 669.75 35.25" fill="#9725FA"/><rect x="669.75" y="35.25" width="35.25" height="35.25" fill="#9725FA"/><path d="M 669.75 70.5 A 35.25 35.25 0 0 0 705 35.25 L 669.75 35.25" fill="#9725FA"/><rect x="705" y="0" width="70.5" height="70.5" fill="#9725FA"/><polygon points="775.5,0 775.5,70.5 705,70.5" fill="#42106E"/><rect x="775.5" y="0" width="70.5" height="70.5" fill="#42106E"/><path d="M 775.5 0 A 70.5 70.5 0 0 0 846 70.5 L 846 0" fill="#9725FA"/><rect x="846" y="0" width="70.5" height="70.5" fill="#ffffff"/><rect x="846" y="0" width="35.25" height="35.25" fill="#9725FA"/><path d="M 846 0 A 35.25 35.25 0 0 1 881.25 35.25 L 846 35.25" fill="#42106E"/><rect x="881.25" y="0" width="35.25" height="35.25" fill="#9725FA"/><path d="M 881.25 35.25 A 35.25 35.25 0 0 1  916.5 0 L 916.5 35.25" fill="#9725FA"/><rect x="846" y="35.25" width="35.25" height="35.25" fill="#9725FA"/><path d="M 846 70.5 A 35.25 35.25 0 0 0 881.25 35.25 L 846 35.25" fill="#9725FA"/><rect x="881.25" y="35.25" width="35.25" height="35.25" fill="#9725FA"/><path d="M 881.25 35.25 A 35.25 35.25 0 0 0 916.5 70.5 L 916.5 35.25" fill="#42106E"/><rect x="916.5" y="0" width="70.5" height="70.5" fill="#9725FA"/><rect x="916.5" y="0" width="70.5" height="70.5" fill="#9725FA"/><rect x="987" y="0" width="70.5" height="70.5" fill="#9725FA"/><path d="M 987 70.5 A 70.5 70.5 0 0 0 1057.5 0 L 987 0" fill="#9725FA"/><rect x="1057.5" y="0" width="70.5" height="70.5" fill="#ffffff"/><rect x="1057.5" y="0" width="35.25" height="35.25" fill="#42106E"/><path d="M 1057.5 0 A 35.25 35.25 0 0 1 1092.75 35.25 L 1057.5 35.25" fill="#42106E"/><rect x="1092.75" y="0" width="35.25" height="35.25" fill="#9725FA"/><path d="M 1092.75 35.25 A 35.25 35.25 0 0 1  1128 0 L 1128 35.25" fill="#9725FA"/><rect x="1057.5" y="35.25" width="35.25" height="35.25" fill="#42106E"/><path d="M 1057.5 70.5 A 35.25 35.25 0 0 0 1092.75 35.25 L 1057.5 35.25" fill="#9725FA"/><rect x="1092.75" y="35.25" width="35.25" height="35.25" fill="#42106E"/><path d="M 1092.75 35.25 A 35.25 35.25 0 0 0 1128 70.5 L 1128 35.25" fill="#42106E"/><rect x="0" y="70.5" width="70.5" height="70.5" fill="#ffffff"/><rect x="0" y="70.5" width="35.25" height="35.25" fill="#9725FA"/><polygon points="35.25,70.5 35.25,105.75 0,105.75" fill="#9725FA"/><rect x="35.25" y="70.5" width="35.25" height="35.25" fill="#42106E"/><polygon points="35.25,70.5 70.5,105.75 35.25,105.75" fill="#9725FA"/><rect x="0" y="105.75" width="35.25" height="35.25" fill="#42106E"/><polygon points="0,105.75 35.25,105.75 35.25,141" fill="#42106E"/><rect x="35.25" y="105.75" width="35.25" height="35.25" fill="#42106E"/><polygon points="35.25,105.75 70.5,105.75 35.25,141" fill="#9725FA"/><rect x="70.5" y="70.5" width="70.5" height="70.5" fill="#42106E"/><path d="M 70.5 141 A 70.5 70.5 0 0 1  141 70.5 L 141 141" fill="#42106E"/><rect x="141" y="70.5" width="70.5" height="70.5" fill="#9725FA"/><rect x="141" y="70.5" width="70.5" height="70.5" fill="#42106E"/><rect x="211.5" y="70.5" width="70.5" height="70.5" fill="#42106E"/><rect x="211.5" y="70.5" width="70.5" height="70.5" fill="#42106E"/><rect x="282" y="70.5" width="70.5" height="70.5" fill="#42106E"/><rect x="282" y="70.5" width="70.5" height="70.5" fill="#9725FA"/><rect x="352.5" y="70.5" width="70.5" height="70.5" fill="#ffffff"/><rect x="352.5" y="70.5" width="35.25" height="35.25" fill="#9725FA"/><path d="M 352.5 105.75 A 35.25 35.25 0 0 1  387.75 70.5 L 387.75 105.75" fill="#42106E"/><rect x="387.75" y="70.5" width="35.25" height="35.25" fill="#9725FA"/><path d="M 387.75 70.5 A 35.25 35.25 0 0 1 423 105.75 L 387.75 105.75" fill="#9725FA"/><rect x="352.5" y="105.75" width="35.25" height="35.25" fill="#9725FA"/><path d="M 352.5 105.75 A 35.25 35.25 0 0 0 387.75 141 L 387.75 105.75" fill="#9725FA"/><rect x="387.75" y="105.75" width="35.25" height="35.25" fill="#9725FA"/><path d="M 387.75 141 A 35.25 35.25 0 0 0 423 105.75 L 387.75 105.75" fill="#9725FA"/><rect x="423" y="70.5" width="70.5" height="70.5" fill="#42106E"/><rect x="423" y="70.5" width="70.5" height="70.5" fill="#42106E"/><rect x="493.5" y="70.5" width="70.5" height="70.5" fill="#42106E"/><rect x="493.5" y="70.5" width="70.5" height="70.5" fill="#9725FA"/><rect x="564" y="70.5" width="70.5" height="70.5" fill="#9725FA"/><polygon points="564,70.5 634.5,70.5 634.5,141" fill="#9725FA"/><rect x="634.5" y="70.5" width="70.5" height="70.5" fill="#9725FA"/><polygon points="705,70.5 705,141 634.5,141" fill="#9725FA"/><rect x="705" y="70.5" width="70.5" height="70.5" fill="#9725FA"/><rect x="705" y="70.5" width="70.5" height="70.5" fill="#9725FA"/><rect x="775.5" y="70.5" width="70.5" height="70.5" fill="#9725FA"/><path d="M 775.5 70.5 A 70.5 70.5 0 0 1  846 141 L 775.5 70.5 A 70.5 70.5 0 0 0 846 141" fill="#42106E"/><rect x="846" y="70.5" width="70.5" height="70.5" fill="#ffffff"/><rect x="846" y="70.5" width="35.25" height="35.25" fill="#42106E"/><path d="M 846 105.75 A 35.25 35.25 0 0 0 881.25 70.5 L 846 70.5" fill="#42106E"/><rect x="881.25" y="70.5" width="35.25" height="35.25" fill="#9725FA"/><path d="M 881.25 70.5 A 35.25 35.25 0 0 0 916.5 105.75 L 916.5 70.5" fill="#9725FA"/><rect x="846" y="105.75" width="35.25" height="35.25" fill="#9725FA"/><path d="M 846 105.75 A 35.25 35.25 0 0 1 881.25 141 L 846 141" fill="#42106E"/><rect x="881.25" y="105.75" width="35.25" height="35.25" fill="#9725FA"/><path d="M 881.25 141 A 35.25 35.25 0 0 1  916.5 105.75 L 916.5 141" fill="#42106E"/><rect x="916.5" y="70.5" width="70.5" height="70.5" fill="#ffffff"/><rect x="916.5" y="70.5" width="35.25" height="35.25" fill="#9725FA"/><polygon points="951.75,70.5 951.75,105.75 916.5,105.75" fill="#9725FA"/><rect x="951.75" y="70.5" width="35.25" height="35.25" fill="#9725FA"/><polygon points="951.75,70.5 987,70.5 951.75,105.75" fill="#9725FA"/><rect x="916.5" y="105.75" width="35.25" height="35.25" fill="#42106E"/><polygon points="916.5,105.75 951.75,105.75 951.75,141" fill="#9725FA"/><rect x="951.75" y="105.75" width="35.25" height="35.25" fill="#9725FA"/><polygon points="951.75,105.75 987,141 951.75,141" fill="#42106E"/><rect x="987" y="70.5" width="70.5" height="70.5" fill="#9725FA"/><path d="M 987 70.5 A 70.5 70.5 0 0 1 1057.5 141 L 987 141" fill="#9725FA"/><rect x="1057.5" y="70.5" width="70.5" height="70.5" fill="#9725FA"/><rect x="1057.5" y="70.5" width="70.5" height="70.5" fill="#42106E"/><rect x="0" y="141" width="70.5" height="70.5" fill="#9725FA"/><rect x="0" y="141" width="70.5" height="70.5" fill="#42106E"/><rect x="70.5" y="141" width="70.5" height="70.5" fill="#ffffff"/><rect x="70.5" y="141" width="35.25" height="35.25" fill="#42106E"/><path d="M 70.5 176.25 A 35.25 35.25 0 0 0 105.75 141 L 70.5 141" fill="#9725FA"/><rect x="105.75" y="141" width="35.25" height="35.25" fill="#9725FA"/><path d="M 105.75 141 A 35.25 35.25 0 0 0 141 176.25 L 141 141" fill="#42106E"/><rect x="70.5" y="176.25" width="35.25" height="35.25" fill="#9725FA"/><path d="M 70.5 176.25 A 35.25 35.25 0 0 1 105.75 211.5 L 70.5 211.5" fill="#42106E"/><rect x="105.75" y="176.25" width="35.25" height="35.25" fill="#9725FA"/><path d="M 105.75 211.5 A 35.25 35.25 0 0 1  141 176.25 L 141 211.5" fill="#42106E"/><rect x="141" y="141" width="70.5" height="70.5" fill="#9725FA"/><path d="M 141 211.5 A 70.5 70.5 0 0 0 211.5 141 L 141 141" fill="#9725FA"/><rect x="211.5" y="141" width="70.5" height="70.5" fill="#42106E"/><path d="M 211.5 211.5 A 70.5 70.5 0 0 1  282 141 L 282 211.5" fill="#42106E"/><rect x="282" y="141" width="70.5" height="70.5" fill="#ffffff"/><rect x="282" y="141" width="35.25" height="35.25" fill="#9725FA"/><circle cx="299.625" cy="158.625" r="17.625" fill="#42106E"/><rect x="317.25" y="141" width="35.25" height="35.25" fill="#42106E"/><rect x="317.25" y="141" width="35.25" height="35.25" fill="#9725FA"/><rect x="282" y="176.25" width="35.25" height="35.25" fill="#42106E"/><circle cx="299.625" cy="193.875" r="17.625" fill="#42106E"/><rect x="317.25" y="176.25" width="35.25" height="35.25" fill="#42106E"/><rect x="317.25" y="176.25" width="35.25" height="35.25" fill="#42106E"/><rect x="352.5" y="141" width="70.5" height="70.5" fill="#9725FA"/><rect x="352.5" y="141" width="70.5" height="70.5" fill="#42106E"/><rect x="423" y="141" width="70.5" height="70.5" fill="#9725FA"/><path d="M 423 211.5 A 70.5 70.5 0 0 1  493.5 141 L 493.5 211.5" fill="#9725FA"/><rect x="493.5" y="141" width="70.5" height="70.5" fill="#ffffff"/><rect x="493.5" y="141" width="35.25" height="35.25" fill="#9725FA"/><path d="M 493.5 141 A 35.25 35.25 0 0 0 528.75 176.25 L 528.75 141" fill="#9725FA"/><rect x="528.75" y="141" width="35.25" height="35.25" fill="#42106E"/><path d="M 528.75 176.25 A 35.25 35.25 0 0 0 564 141 L 528.75 141" fill="#9725FA"/><rect x="493.5" y="176.25" width="35.25" height="35.25" fill="#9725FA"/><path d="M 493.5 211.5 A 35.25 35.25 0 0 1  528.75 176.25 L 528.75 211.5" fill="#9725FA"/><rect x="528.75" y="176.25" width="35.25" height="35.25" fill="#42106E"/><path d="M 528.75 176.25 A 35.25 35.25 0 0 1 564 211.5 L 528.75 211.5" fill="#9725FA"/><rect x="564" y="141" width="70.5" height="70.5" fill="#9725FA"/><rect x="564" y="141" width="70.5" height="70.5" fill="#42106E"/><rect x="634.5" y="141" width="70.5" height="70.5" fill="#42106E"/><polygon points="634.5,141 705,211.5 634.5,211.5" fill="#42106E"/><rect x="705" y="141" width="70.5" height="70.5" fill="#ffffff"/><rect x="705" y="141" width="35.25" height="35.25" fill="#9725FA"/><path d="M 705 141 A 35.25 35.25 0 0 1 740.25 176.25 L 705 176.25" fill="#42106E"/><rect x="740.25" y="141" width="35.25" height="35.25" fill="#42106E"/><path d="M 740.25 176.25 A 35.25 35.25 0 0 1  775.5 141 L 775.5 176.25" fill="#9725FA"/><rect x="705" y="176.25" width="35.25" height="35.25" fill="#9725FA"/><path d="M 705 211.5 A 35.25 35.25 0 0 0 740.25 176.25 L 705 176.25" fill="#42106E"/><rect x="740.25" y="176.25" width="35.25" height="35.25" fill="#9725FA"/><path d="M 740.25 176.25 A 35.25 35.25 0 0 0 775.5 211.5 L 775.5 176.25" fill="#9725FA"/><rect x="775.5" y="141" width="70.5" height="70.5" fill="#ffffff"/><rect x="775.5" y="141" width="35.25" height="35.25" fill="#9725FA"/><circle cx="793.125" cy="158.625" r="17.625" fill="#9725FA"/><rect x="810.75" y="141" width="35.25" height="35.25" fill="#42106E"/><rect x="810.75" y="141" width="35.25" height="35.25" fill="#9725FA"/><rect x="775.5" y="176.25" width="35.25" height="35.25" fill="#42106E"/><circle cx="793.125" cy="193.875" r="17.625" fill="#9725FA"/><rect x="810.75" y="176.25" width="35.25" height="35.25" fill="#9725FA"/><rect x="810.75" y="176.25" width="35.25" height="35.25" fill="#9725FA"/><rect x="846" y="141" width="70.5" height="70.5" fill="#9725FA"/><rect x="846" y="141" width="70.5" height="70.5" fill="#9725FA"/><rect x="916.5" y="141" width="70.5" height="70.5" fill="#ffffff"/><rect x="916.5" y="141" width="35.25" height="35.25" fill="#42106E"/><path d="M 916.5 141 A 35.25 35.25 0 0 1 951.75 176.25 L 916.5 176.25" fill="#42106E"/><rect x="951.75" y="141" width="35.25" height="35.25" fill="#9725FA"/><path d="M 951.75 176.25 A 35.25 35.25 0 0 1  987 141 L 987 176.25" fill="#9725FA"/><rect x="916.5" y="176.25" width="35.25" height="35.25" fill="#42106E"/><path d="M 916.5 211.5 A 35.25 35.25 0 0 0 951.75 176.25 L 916.5 176.25" fill="#42106E"/><rect x="951.75" y="176.25" width="35.25" height="35.25" fill="#42106E"/><path d="M 951.75 176.25 A 35.25 35.25 0 0 0 987 211.5 L 987 176.25" fill="#9725FA"/><rect x="987" y="141" width="70.5" height="70.5" fill="#ffffff"/><rect x="987" y="141" width="35.25" height="35.25" fill="#42106E"/><polygon points="1022.25,141 1022.25,176.25 987,176.25" fill="#9725FA"/><rect x="1022.25" y="141" width="35.25" height="35.25" fill="#9725FA"/><polygon points="1022.25,141 1057.5,176.25 1022.25,176.25" fill="#9725FA"/><rect x="987" y="176.25" width="35.25" height="35.25" fill="#9725FA"/><polygon points="987,176.25 1022.25,176.25 1022.25,211.5" fill="#9725FA"/><rect x="1022.25" y="176.25" width="35.25" height="35.25" fill="#42106E"/><polygon points="1022.25,176.25 1057.5,176.25 1022.25,211.5" fill="#42106E"/><rect x="1057.5" y="141" width="70.5" height="70.5" fill="#42106E"/><rect x="1057.5" y="141" width="70.5" height="70.5" fill="#42106E"/><rect x="0" y="211.5" width="70.5" height="70.5" fill="#9725FA"/><polygon points="0,211.5 70.5,282 0,282" fill="#9725FA"/><rect x="70.5" y="211.5" width="70.5" height="70.5" fill="#ffffff"/><rect x="70.5" y="211.5" width="35.25" height="35.25" fill="#9725FA"/><polygon points="105.75,211.5 105.75,246.75 70.5,246.75" fill="#9725FA"/><rect x="105.75" y="211.5" width="35.25" height="35.25" fill="#9725FA"/><polygon points="105.75,211.5 141,246.75 105.75,246.75" fill="#42106E"/><rect x="70.5" y="246.75" width="35.25" height="35.25" fill="#9725FA"/><polygon points="70.5,246.75 105.75,246.75 105.75,282" fill="#9725FA"/><rect x="105.75" y="246.75" width="35.25" height="35.25" fill="#42106E"/><polygon points="105.75,246.75 141,246.75 105.75,282" fill="#9725FA"/><rect x="141" y="211.5" width="70.5" height="70.5" fill="#ffffff"/><rect x="141" y="211.5" width="35.25" height="35.25" fill="#9725FA"/><circle cx="158.625" cy="229.125" r="17.625" fill="#9725FA"/><rect x="176.25" y="211.5" width="35.25" height="35.25" fill="#9725FA"/><rect x="176.25" y="211.5" width="35.25" height="35.25" fill="#9725FA"/><rect x="141" y="246.75" width="35.25" height="35.25" fill="#42106E"/><circle cx="158.625" cy="264.375" r="17.625" fill="#42106E"/><rect x="176.25" y="246.75" width="35.25" height="35.25" fill="#42106E"/><rect x="176.25" y="246.75" width="35.25" height="35.25" fill="#42106E"/><rect x="211.5" y="211.5" width="70.5" height="70.5" fill="#9725FA"/><rect x="211.5" y="211.5" width="70.5" height="70.5" fill="#9725FA"/><rect x="282" y="211.5" width="70.5" height="70.5" fill="#9725FA"/><path d="M 282 282 A 70.5 70.5 0 0 0 352.5 211.5 L 282 211.5" fill="#9725FA"/><rect x="352.5" y="211.5" width="70.5" height="70.5" fill="#ffffff"/><rect x="352.5" y="211.5" width="35.25" height="35.25" fill="#42106E"/><path d="M 352.5 246.75 A 35.25 35.25 0 0 1 387.75 211.5 L 387.75 220.3125 A 26.4375 26.4375 0 0 0 361.3125 246.75" fill="#9725FA"/><rect x="387.75" y="211.5" width="35.25" height="35.25" fill="#42106E"/><path d="M 387.75 211.5 A 35.25 35.25 0 0 1 423 246.75 L 414.1875 246.75 A 26.4375 26.4375 0 0 0 387.75 220.3125" fill="#42106E"/><rect x="352.5" y="246.75" width="35.25" height="35.25" fill="#42106E"/><path d="M 352.5 246.75 A 35.25 35.25 0 0 0 387.75 282 L 387.75 273.1875 A 26.4375 26.4375 0 0 1 361.3125 246.75" fill="#9725FA"/><rect x="387.75" y="246.75" width="35.25" height="35.25" fill="#42106E"/><path d="M 387.75 282 A 35.25 35.25 0 0 0 423 246.75 L 414.1875 246.75 A 26.4375 26.4375 0 0 1 387.75 273.1875" fill="#9725FA"/><rect x="423" y="211.5" width="70.5" height="70.5" fill="#ffffff"/><rect x="423" y="211.5" width="35.25" height="35.25" fill="#9725FA"/><polygon points="458.25,211.5 458.25,246.75 423,246.75" fill="#9725FA"/><rect x="458.25" y="211.5" width="35.25" height="35.25" fill="#42106E"/><polygon points="458.25,211.5 493.5,246.75 458.25,246.75" fill="#9725FA"/><rect x="423" y="246.75" width="35.25" height="35.25" fill="#9725FA"/><polygon points="423,246.75 458.25,246.75 423,282" fill="#9725FA"/><rect x="458.25" y="246.75" width="35.25" height="35.25" fill="#9725FA"/><polygon points="458.25,246.75 493.5,246.75 493.5,282" fill="#9725FA"/><rect x="493.5" y="211.5" width="70.5" height="70.5" fill="#ffffff"/><rect x="493.5" y="211.5" width="35.25" height="35.25" fill="#42106E"/><circle cx="511.125" cy="229.125" r="17.625" fill="#42106E"/><rect x="528.75" y="211.5" width="35.25" height="35.25" fill="#42106E"/><rect x="528.75" y="211.5" width="35.25" height="35.25" fill="#42106E"/><rect x="493.5" y="246.75" width="35.25" height="35.25" fill="#42106E"/><circle cx="511.125" cy="264.375" r="17.625" fill="#9725FA"/><rect x="528.75" y="246.75" width="35.25" height="35.25" fill="#42106E"/><rect x="528.75" y="246.75" width="35.25" height="35.25" fill="#42106E"/><rect x="564" y="211.5" width="70.5" height="70.5" fill="#42106E"/><rect x="564" y="211.5" width="70.5" height="70.5" fill="#9725FA"/><rect x="634.5" y="211.5" width="70.5" height="70.5" fill="#ffffff"/><rect x="634.5" y="211.5" width="35.25" height="35.25" fill="#9725FA"/><path d="M 634.5 246.75 A 35.25 35.25 0 0 0 669.75 211.5 L 634.5 211.5" fill="#9725FA"/><rect x="669.75" y="211.5" width="35.25" height="35.25" fill="#42106E"/><path d="M 669.75 211.5 A 35.25 35.25 0 0 0 705 246.75 L 705 211.5" fill="#9725FA"/><rect x="634.5" y="246.75" width="35.25" height="35.25" fill="#9725FA"/><path d="M 634.5 246.75 A 35.25 35.25 0 0 1 669.75 282 L 634.5 282" fill="#42106E"/><rect x="669.75" y="246.75" width="35.25" height="35.25" fill="#9725FA"/><path d="M 669.75 282 A 35.25 35.25 0 0 1  705 246.75 L 705 282" fill="#42106E"/><rect x="705" y="211.5" width="70.5" height="70.5" fill="#42106E"/><path d="M 705 211.5 A 70.5 70.5 0 0 0 775.5 282 L 775.5 211.5" fill="#42106E"/><rect x="775.5" y="211.5" width="70.5" height="70.5" fill="#9725FA"/><rect x="775.5" y="211.5" width="70.5" height="70.5" fill="#9725FA"/><rect x="846" y="211.5" width="70.5" height="70.5" fill="#42106E"/><rect x="846" y="211.5" width="70.5" height="70.5" fill="#42106E"/><rect x="916.5" y="211.5" width="70.5" height="70.5" fill="#ffffff"/><rect x="916.5" y="211.5" width="35.25" height="35.25" fill="#42106E"/><path d="M 916.5 246.75 A 35.25 35.25 0 0 1  951.75 211.5 L 951.75 246.75" fill="#42106E"/><rect x="951.75" y="211.5" width="35.25" height="35.25" fill="#9725FA"/><path d="M 951.75 211.5 A 35.25 35.25 0 0 1 987 246.75 L 951.75 246.75" fill="#9725FA"/><rect x="916.5" y="246.75" width="35.25" height="35.25" fill="#42106E"/><path d="M 916.5 246.75 A 35.25 35.25 0 0 0 951.75 282 L 951.75 246.75" fill="#42106E"/><rect x="951.75" y="246.75" width="35.25" height="35.25" fill="#42106E"/><path d="M 951.75 282 A 35.25 35.25 0 0 0 987 246.75 L 951.75 246.75" fill="#42106E"/><rect x="987" y="211.5" width="70.5" height="70.5" fill="#ffffff"/><rect x="987" y="211.5" width="35.25" height="35.25" fill="#42106E"/><path d="M 987 246.75 A 35.25 35.25 0 0 1 1022.25 211.5 L 1022.25 220.3125 A 26.4375 26.4375 0 0 0 995.8125 246.75" fill="#9725FA"/><rect x="1022.25" y="211.5" width="35.25" height="35.25" fill="#42106E"/><path d="M 1022.25 211.5 A 35.25 35.25 0 0 1 1057.5 246.75 L 1048.6875 246.75 A 26.4375 26.4375 0 0 0 1022.25 220.3125" fill="#42106E"/><rect x="987" y="246.75" width="35.25" height="35.25" fill="#9725FA"/><path d="M 987 246.75 A 35.25 35.25 0 0 0 1022.25 282 L 1022.25 273.1875 A 26.4375 26.4375 0 0 1 995.8125 246.75" fill="#9725FA"/><rect x="1022.25" y="246.75" width="35.25" height="35.25" fill="#9725FA"/><path d="M 1022.25 282 A 35.25 35.25 0 0 0 1057.5 246.75 L 1048.6875 246.75 A 26.4375 26.4375 0 0 1 1022.25 273.1875" fill="#42106E"/><rect x="1057.5" y="211.5" width="70.5" height="70.5" fill="#9725FA"/><polygon points="1057.5,211.5 1128,211.5 1128,282" fill="#42106E"/><rect x="0" y="282" width="70.5" height="70.5" fill="#ffffff"/><rect x="0" y="282" width="35.25" height="35.25" fill="#9725FA"/><path d="M 0 317.25 A 35.25 35.25 0 0 1 35.25 282 L 35.25 290.8125 A 26.4375 26.4375 0 0 0 8.8125 317.25" fill="#9725FA"/><rect x="35.25" y="282" width="35.25" height="35.25" fill="#42106E"/><path d="M 35.25 282 A 35.25 35.25 0 0 1 70.5 317.25 L 61.6875 317.25 A 26.4375 26.4375 0 0 0 35.25 290.8125" fill="#9725FA"/><rect x="0" y="317.25" width="35.25" height="35.25" fill="#9725FA"/><path d="M 0 317.25 A 35.25 35.25 0 0 0 35.25 352.5 L 35.25 343.6875 A 26.4375 26.4375 0 0 1 8.8125 317.25" fill="#9725FA"/><rect x="35.25" y="317.25" width="35.25" height="35.25" fill="#42106E"/><path d="M 35.25 352.5 A 35.25 35.25 0 0 0 70.5 317.25 L 61.6875 317.25 A 26.4375 26.4375 0 0 1 35.25 343.6875" fill="#9725FA"/><rect x="70.5" y="282" width="70.5" height="70.5" fill="#ffffff"/><rect x="70.5" y="282" width="35.25" height="35.25" fill="#9725FA"/><polygon points="105.75,282 105.75,317.25 70.5,317.25" fill="#9725FA"/><rect x="105.75" y="282" width="35.25" height="35.25" fill="#9725FA"/><polygon points="105.75,282 141,282 105.75,317.25" fill="#9725FA"/><rect x="70.5" y="317.25" width="35.25" height="35.25" fill="#42106E"/><polygon points="70.5,317.25 105.75,317.25 105.75,352.5" fill="#9725FA"/><rect x="105.75" y="317.25" width="35.25" height="35.25" fill="#9725FA"/><polygon points="105.75,317.25 141,352.5 105.75,352.5" fill="#9725FA"/><rect x="141" y="282" width="70.5" height="70.5" fill="#ffffff"/><rect x="141" y="282" width="35.25" height="35.25" fill="#9725FA"/><path d="M 141 282 A 35.25 35.25 0 0 1 176.25 317.25 L 141 317.25" fill="#9725FA"/><rect x="176.25" y="282" width="35.25" height="35.25" fill="#9725FA"/><path d="M 176.25 317.25 A 35.25 35.25 0 0 1  211.5 282 L 211.5 317.25" fill="#9725FA"/><rect x="141" y="317.25" width="35.25" height="35.25" fill="#9725FA"/><path d="M 141 352.5 A 35.25 35.25 0 0 0 176.25 317.25 L 141 317.25" fill="#42106E"/><rect x="176.25" y="317.25" width="35.25" height="35.25" fill="#9725FA"/><path d="M 176.25 317.25 A 35.25 35.25 0 0 0 211.5 352.5 L 211.5 317.25" fill="#42106E"/><rect x="211.5" y="282" width="70.5" height="70.5" fill="#ffffff"/><rect x="211.5" y="282" width="35.25" height="35.25" fill="#9725FA"/><path d="M 211.5 282 A 35.25 35.25 0 0 0 246.75 317.25 L 246.75 282" fill="#9725FA"/><rect x="246.75" y="282" width="35.25" height="35.25" fill="#9725FA"/><path d="M 246.75 317.25 A 35.25 35.25 0 0 0 282 282 L 246.75 282" fill="#42106E"/><rect x="211.5" y="317.25" width="35.25" height="35.25" fill="#42106E"/><path d="M 211.5 352.5 A 35.25 35.25 0 0 1  246.75 317.25 L 246.75 352.5" fill="#42106E"/><rect x="246.75" y="317.25" width="35.25" height="35.25" fill="#9725FA"/><path d="M 246.75 317.25 A 35.25 35.25 0 0 1 282 352.5 L 246.75 352.5" fill="#9725FA"/><rect x="282" y="282" width="70.5" height="70.5" fill="#ffffff"/><rect x="282" y="282" width="35.25" height="35.25" fill="#9725FA"/><path d="M 282 317.25 A 35.25 35.25 0 0 1 317.25 282 L 317.25 290.8125 A 26.4375 26.4375 0 0 0 290.8125 317.25" fill="#9725FA"/><rect x="317.25" y="282" width="35.25" height="35.25" fill="#9725FA"/><path d="M 317.25 282 A 35.25 35.25 0 0 1 352.5 317.25 L 343.6875 317.25 A 26.4375 26.4375 0 0 0 317.25 290.8125" fill="#9725FA"/><rect x="282" y="317.25" width="35.25" height="35.25" fill="#42106E"/><path d="M 282 317.25 A 35.25 35.25 0 0 0 317.25 352.5 L 317.25 343.6875 A 26.4375 26.4375 0 0 1 290.8125 317.25" fill="#9725FA"/><rect x="317.25" y="317.25" width="35.25" height="35.25" fill="#9725FA"/><path d="M 317.25 352.5 A 35.25 35.25 0 0 0 352.5 317.25 L 343.6875 317.25 A 26.4375 26.4375 0 0 1 317.25 343.6875" fill="#42106E"/><rect x="352.5" y="282" width="70.5" height="70.5" fill="#ffffff"/><rect x="352.5" y="282" width="35.25" height="35.25" fill="#9725FA"/><path d="M 352.5 282 A 35.25 35.25 0 0 0 387.75 317.25 L 387.75 282" fill="#42106E"/><rect x="387.75" y="282" width="35.25" height="35.25" fill="#42106E"/><path d="M 387.75 317.25 A 35.25 35.25 0 0 0 423 282 L 387.75 282" fill="#9725FA"/><rect x="352.5" y="317.25" width="35.25" height="35.25" fill="#9725FA"/><path d="M 352.5 352.5 A 35.25 35.25 0 0 1  387.75 317.25 L 387.75 352.5" fill="#42106E"/><rect x="387.75" y="317.25" width="35.25" height="35.25" fill="#9725FA"/><path d="M 387.75 317.25 A 35.25 35.25 0 0 1 423 352.5 L 387.75 352.5" fill="#42106E"/><rect x="423" y="282" width="70.5" height="70.5" fill="#ffffff"/><rect x="423" y="282" width="35.25" height="35.25" fill="#42106E"/><path d="M 423 317.25 A 35.25 35.25 0 0 0 458.25 282 L 423 282" fill="#42106E"/><rect x="458.25" y="282" width="35.25" height="35.25" fill="#42106E"/><path d="M 458.25 282 A 35.25 35.25 0 0 0 493.5 317.25 L 493.5 282" fill="#9725FA"/><rect x="423" y="317.25" width="35.25" height="35.25" fill="#9725FA"/><path d="M 423 317.25 A 35.25 35.25 0 0 1 458.25 352.5 L 423 352.5" fill="#9725FA"/><rect x="458.25" y="317.25" width="35.25" height="35.25" fill="#9725FA"/><path d="M 458.25 352.5 A 35.25 35.25 0 0 1  493.5 317.25 L 493.5 352.5" fill="#9725FA"/><rect x="493.5" y="282" width="70.5" height="70.5" fill="#42106E"/><rect x="493.5" y="282" width="70.5" height="70.5" fill="#42106E"/><rect x="564" y="282" width="70.5" height="70.5" fill="#ffffff"/><rect x="564" y="282" width="35.25" height="35.25" fill="#9725FA"/><path d="M 564 282 A 35.25 35.25 0 0 0 599.25 317.25 L 599.25 282" fill="#42106E"/><rect x="599.25" y="282" width="35.25" height="35.25" fill="#9725FA"/><path d="M 599.25 317.25 A 35.25 35.25 0 0 0 634.5 282 L 599.25 282" fill="#9725FA"/><rect x="564" y="317.25" width="35.25" height="35.25" fill="#9725FA"/><path d="M 564 352.5 A 35.25 35.25 0 0 1  599.25 317.25 L 599.25 352.5" fill="#9725FA"/><rect x="599.25" y="317.25" width="35.25" height="35.25" fill="#42106E"/><path d="M 599.25 317.25 A 35.25 35.25 0 0 1 634.5 352.5 L 599.25 352.5" fill="#42106E"/><rect x="634.5" y="282" width="70.5" height="70.5" fill="#42106E"/><rect x="634.5" y="282" width="70.5" height="70.5" fill="#42106E"/><rect x="705" y="282" width="70.5" height="70.5" fill="#ffffff"/><rect x="705" y="282" width="35.25" height="35.25" fill="#9725FA"/><polygon points="740.25,282 740.25,317.25 705,317.25" fill="#42106E"/><rect x="740.25" y="282" width="35.25" height="35.25" fill="#42106E"/><polygon points="740.25,282 775.5,317.25 740.25,317.25" fill="#9725FA"/><rect x="705" y="317.25" width="35.25" height="35.25" fill="#9725FA"/><polygon points="705,317.25 740.25,317.25 705,352.5" fill="#9725FA"/><rect x="740.25" y="317.25" width="35.25" height="35.25" fill="#42106E"/><polygon points="740.25,317.25 775.5,317.25 775.5,352.5" fill="#9725FA"/><rect x="775.5" y="282" width="70.5" height="70.5" fill="#9725FA"/><path d="M 775.5 352.5 A 70.5 70.5 0 0 1  846 282 L 846 352.5" fill="#9725FA"/><rect x="846" y="282" width="70.5" height="70.5" fill="#ffffff"/><rect x="846" y="282" width="35.25" height="35.25" fill="#9725FA"/><path d="M 846 282 A 35.25 35.25 0 0 1 881.25 317.25 L 846 317.25" fill="#42106E"/><rect x="881.25" y="282" width="35.25" height="35.25" fill="#9725FA"/><path d="M 881.25 317.25 A 35.25 35.25 0 0 1  916.5 282 L 916.5 317.25" fill="#9725FA"/><rect x="846" y="317.25" width="35.25" height="35.25" fill="#9725FA"/><path d="M 846 352.5 A 35.25 35.25 0 0 0 881.25 317.25 L 846 317.25" fill="#9725FA"/><rect x="881.25" y="317.25" width="35.25" height="35.25" fill="#42106E"/><path d="M 881.25 317.25 A 35.25 35.25 0 0 0 916.5 352.5 L 916.5 317.25" fill="#42106E"/><rect x="916.5" y="282" width="70.5" height="70.5" fill="#ffffff"/><rect x="916.5" y="282" width="35.25" height="35.25" fill="#42106E"/><polygon points="951.75,282 951.75,317.25 916.5,317.25" fill="#42106E"/><rect x="951.75" y="282" width="35.25" height="35.25" fill="#42106E"/><polygon points="951.75,282 987,317.25 951.75,317.25" fill="#9725FA"/><rect x="916.5" y="317.25" width="35.25" height="35.25" fill="#9725FA"/><polygon points="916.5,317.25 951.75,317.25 916.5,352.5" fill="#9725FA"/><rect x="951.75" y="317.25" width="35.25" height="35.25" fill="#9725FA"/><polygon points="951.75,317.25 987,317.25 987,352.5" fill="#42106E"/><rect x="987" y="282" width="70.5" height="70.5" fill="#9725FA"/><path d="M 987 352.5 A 70.5 70.5 0 0 1  1057.5 282 L 1057.5 352.5" fill="#9725FA"/><rect x="1057.5" y="282" width="70.5" height="70.5" fill="#ffffff"/><rect x="1057.5" y="282" width="35.25" height="35.25" fill="#42106E"/><path d="M 1057.5 282 A 35.25 35.25 0 0 1 1092.75 317.25 L 1057.5 317.25" fill="#9725FA"/><rect x="1092.75" y="282" width="35.25" height="35.25" fill="#9725FA"/><path d="M 1092.75 317.25 A 35.25 35.25 0 0 1  1128 282 L 1128 317.25" fill="#9725FA"/><rect x="1057.5" y="317.25" width="35.25" height="35.25" fill="#42106E"/><path d="M 1057.5 352.5 A 35.25 35.25 0 0 0 1092.75 317.25 L 1057.5 317.25" fill="#9725FA"/><rect x="1092.75" y="317.25" width="35.25" height="35.25" fill="#9725FA"/><path d="M 1092.75 317.25 A 35.25 35.25 0 0 0 1128 352.5 L 1128 317.25" fill="#9725FA"/><rect x="0" y="352.5" width="70.5" height="70.5" fill="#ffffff"/><rect x="0" y="352.5" width="35.25" height="35.25" fill="#42106E"/><path d="M 0 387.75 A 35.25 35.25 0 0 1 35.25 352.5 L 35.25 361.3125 A 26.4375 26.4375 0 0 0 8.8125 387.75" fill="#9725FA"/><rect x="35.25" y="352.5" width="35.25" height="35.25" fill="#9725FA"/><path d="M 35.25 352.5 A 35.25 35.25 0 0 1 70.5 387.75 L 61.6875 387.75 A 26.4375 26.4375 0 0 0 35.25 361.3125" fill="#9725FA"/><rect x="0" y="387.75" width="35.25" height="35.25" fill="#9725FA"/><path d="M 0 387.75 A 35.25 35.25 0 0 0 35.25 423 L 35.25 414.1875 A 26.4375 26.4375 0 0 1 8.8125 387.75" fill="#42106E"/><rect x="35.25" y="387.75" width="35.25" height="35.25" fill="#42106E"/><path d="M 35.25 423 A 35.25 35.25 0 0 0 70.5 387.75 L 61.6875 387.75 A 26.4375 26.4375 0 0 1 35.25 414.1875" fill="#9725FA"/><rect x="70.5" y="352.5" width="70.5" height="70.5" fill="#ffffff"/><rect x="70.5" y="352.5" width="35.25" height="35.25" fill="#42106E"/><circle cx="88.125" cy="370.125" r="17.625" fill="#42106E"/><rect x="105.75" y="352.5" width="35.25" height="35.25" fill="#42106E"/><rect x="105.75" y="352.5" width="35.25" height="35.25" fill="#42106E"/><rect x="70.5" y="387.75" width="35.25" height="35.25" fill="#42106E"/><circle cx="88.125" cy="405.375" r="17.625" fill="#9725FA"/><rect x="105.75" y="387.75" width="35.25" height="35.25" fill="#9725FA"/><rect x="105.75" y="387.75" width="35.25" height="35.25" fill="#9725FA"/><rect x="141" y="352.5" width="70.5" height="70.5" fill="#ffffff"/><rect x="141" y="352.5" width="35.25" height="35.25" fill="#42106E"/><path d="M 141 352.5 A 35.25 35.25 0 0 1 176.25 387.75 L 141 387.75" fill="#42106E"/><rect x="176.25" y="352.5" width="35.25" height="35.25" fill="#9725FA"/><path d="M 176.25 387.75 A 35.25 35.25 0 0 1  211.5 352.5 L 211.5 387.75" fill="#42106E"/><rect x="141" y="387.75" width="35.25" height="35.25" fill="#9725FA"/><path d="M 141 423 A 35.25 35.25 0 0 0 176.25 387.75 L 141 387.75" fill="#42106E"/><rect x="176.25" y="387.75" width="35.25" height="35.25" fill="#42106E"/><path d="M 176.25 387.75 A 35.25 35.25 0 0 0 211.5 423 L 211.5 387.75" fill="#9725FA"/><rect x="211.5" y="352.5" width="70.5" height="70.5" fill="#ffffff"/><rect x="211.5" y="352.5" width="35.25" height="35.25" fill="#9725FA"/><path d="M 211.5 387.75 A 35.25 35.25 0 0 0 246.75 352.5 L 211.5 352.5" fill="#42106E"/><rect x="246.75" y="352.5" width="35.25" height="35.25" fill="#9725FA"/><path d="M 246.75 352.5 A 35.25 35.25 0 0 0 282 387.75 L 282 352.5" fill="#42106E"/><rect x="211.5" y="387.75" width="35.25" height="35.25" fill="#42106E"/><path d="M 211.5 387.75 A 35.25 35.25 0 0 1 246.75 423 L 211.5 423" fill="#9725FA"/><rect x="246.75" y="387.75" width="35.25" height="35.25" fill="#9725FA"/><path d="M 246.75 423 A 35.25 35.25 0 0 1  282 387.75 L 282 423" fill="#42106E"/><rect x="282" y="352.5" width="70.5" height="70.5" fill="#42106E"/><path d="M 282 423 A 70.5 70.5 0 0 0 352.5 352.5 L 282 352.5" fill="#42106E"/><rect x="352.5" y="352.5" width="70.5" height="70.5" fill="#ffffff"/><rect x="352.5" y="352.5" width="35.25" height="35.25" fill="#42106E"/><path d="M 352.5 387.75 A 35.25 35.25 0 0 1  387.75 352.5 L 387.75 387.75" fill="#42106E"/><rect x="387.75" y="352.5" width="35.25" height="35.25" fill="#42106E"/><path d="M 387.75 352.5 A 35.25 35.25 0 0 1 423 387.75 L 387.75 387.75" fill="#9725FA"/><rect x="352.5" y="387.75" width="35.25" height="35.25" fill="#42106E"/><path d="M 352.5 387.75 A 35.25 35.25 0 0 0 387.75 423 L 387.75 387.75" fill="#42106E"/><rect x="387.75" y="387.75" width="35.25" height="35.25" fill="#9725FA"/><path d="M 387.75 423 A 35.25 35.25 0 0 0 423 387.75 L 387.75 387.75" fill="#9725FA"/><rect x="423" y="352.5" width="70.5" height="70.5" fill="#ffffff"/><rect x="423" y="352.5" width="35.25" height="35.25" fill="#9725FA"/><polygon points="458.25,352.5 458.25,387.75 423,387.75" fill="#9725FA"/><rect x="458.25" y="352.5" width="35.25" height="35.25" fill="#42106E"/><polygon points="458.25,352.5 493.5,387.75 458.25,387.75" fill="#42106E"/><rect x="423" y="387.75" width="35.25" height="35.25" fill="#9725FA"/><polygon points="423,387.75 458.25,387.75 423,423" fill="#9725FA"/><rect x="458.25" y="387.75" width="35.25" height="35.25" fill="#9725FA"/><polygon points="458.25,387.75 493.5,387.75 493.5,423" fill="#9725FA"/><rect x="493.5" y="352.5" width="70.5" height="70.5" fill="#ffffff"/><rect x="493.5" y="352.5" width="35.25" height="35.25" fill="#42106E"/><polygon points="528.75,352.5 528.75,387.75 493.5,387.75" fill="#9725FA"/><rect x="528.75" y="352.5" width="35.25" height="35.25" fill="#42106E"/><polygon points="528.75,352.5 564,387.75 528.75,387.75" fill="#42106E"/><rect x="493.5" y="387.75" width="35.25" height="35.25" fill="#42106E"/><polygon points="493.5,387.75 528.75,387.75 493.5,423" fill="#42106E"/><rect x="528.75" y="387.75" width="35.25" height="35.25" fill="#42106E"/><polygon points="528.75,387.75 564,387.75 564,423" fill="#42106E"/><rect x="564" y="352.5" width="70.5" height="70.5" fill="#ffffff"/><rect x="564" y="352.5" width="35.25" height="35.25" fill="#9725FA"/><circle cx="581.625" cy="370.125" r="17.625" fill="#42106E"/><rect x="599.25" y="352.5" width="35.25" height="35.25" fill="#42106E"/><rect x="599.25" y="352.5" width="35.25" height="35.25" fill="#42106E"/><rect x="564" y="387.75" width="35.25" height="35.25" fill="#9725FA"/><circle cx="581.625" cy="405.375" r="17.625" fill="#42106E"/><rect x="599.25" y="387.75" width="35.25" height="35.25" fill="#9725FA"/><rect x="599.25" y="387.75" width="35.25" height="35.25" fill="#9725FA"/><rect x="634.5" y="352.5" width="70.5" height="70.5" fill="#ffffff"/><rect x="634.5" y="352.5" width="35.25" height="35.25" fill="#9725FA"/><polygon points="669.75,352.5 669.75,387.75 634.5,387.75" fill="#42106E"/><rect x="669.75" y="352.5" width="35.25" height="35.25" fill="#42106E"/><polygon points="669.75,352.5 705,387.75 669.75,387.75" fill="#42106E"/><rect x="634.5" y="387.75" width="35.25" height="35.25" fill="#42106E"/><polygon points="634.5,387.75 669.75,387.75 634.5,423" fill="#9725FA"/><rect x="669.75" y="387.75" width="35.25" height="35.25" fill="#42106E"/><polygon points="669.75,387.75 705,387.75 705,423" fill="#42106E"/><rect x="705" y="352.5" width="70.5" height="70.5" fill="#9725FA"/><rect x="705" y="352.5" width="70.5" height="70.5" fill="#9725FA"/><rect x="775.5" y="352.5" width="70.5" height="70.5" fill="#ffffff"/><rect x="775.5" y="352.5" width="35.25" height="35.25" fill="#9725FA"/><path d="M 775.5 387.75 A 35.25 35.25 0 0 1  810.75 352.5 L 810.75 387.75" fill="#42106E"/><rect x="810.75" y="352.5" width="35.25" height="35.25" fill="#42106E"/><path d="M 810.75 352.5 A 35.25 35.25 0 0 1 846 387.75 L 810.75 387.75" fill="#42106E"/><rect x="775.5" y="387.75" width="35.25" height="35.25" fill="#9725FA"/><path d="M 775.5 387.75 A 35.25 35.25 0 0 0 810.75 423 L 810.75 387.75" fill="#9725FA"/><rect x="810.75" y="387.75" width="35.25" height="35.25" fill="#9725FA"/><path d="M 810.75 423 A 35.25 35.25 0 0 0 846 387.75 L 810.75 387.75" fill="#9725FA"/><rect x="846" y="352.5" width="70.5" height="70.5" fill="#ffffff"/><rect x="846" y="352.5" width="35.25" height="35.25" fill="#42106E"/><path d="M 846 352.5 A 35.25 35.25 0 0 0 881.25 387.75 L 881.25 352.5" fill="#9725FA"/><rect x="881.25" y="352.5" width="35.25" height="35.25" fill="#9725FA"/><path d="M 881.25 387.75 A 35.25 35.25 0 0 0 916.5 352.5 L 881.25 352.5" fill="#42106E"/><rect x="846" y="387.75" width="35.25" height="35.25" fill="#9725FA"/><path d="M 846 423 A 35.25 35.25 0 0 1  881.25 387.75 L 881.25 423" fill="#42106E"/><rect x="881.25" y="387.75" width="35.25" height="35.25" fill="#9725FA"/><path d="M 881.25 387.75 A 35.25 35.25 0 0 1 916.5 423 L 881.25 423" fill="#42106E"/><rect x="916.5" y="352.5" width="70.5" height="70.5" fill="#42106E"/><polygon points="916.5,352.5 987,352.5 916.5,423" fill="#9725FA"/><rect x="987" y="352.5" width="70.5" height="70.5" fill="#ffffff"/><rect x="987" y="352.5" width="35.25" height="35.25" fill="#42106E"/><polygon points="1022.25,352.5 1022.25,387.75 987,387.75" fill="#9725FA"/><rect x="1022.25" y="352.5" width="35.25" height="35.25" fill="#42106E"/><polygon points="1022.25,352.5 1057.5,387.75 1022.25,387.75" fill="#9725FA"/><rect x="987" y="387.75" width="35.25" height="35.25" fill="#9725FA"/><polygon points="987,387.75 1022.25,387.75 1022.25,423" fill="#9725FA"/><rect x="1022.25" y="387.75" width="35.25" height="35.25" fill="#9725FA"/><polygon points="1022.25,387.75 1057.5,387.75 1022.25,423" fill="#9725FA"/><rect x="1057.5" y="352.5" width="70.5" height="70.5" fill="#42106E"/><polygon points="1057.5,352.5 1128,352.5 1128,423" fill="#42106E"/><rect x="0" y="423" width="70.5" height="70.5" fill="#9725FA"/><polygon points="0,423 70.5,423 0,493.5" fill="#42106E"/><rect x="70.5" y="423" width="70.5" height="70.5" fill="#ffffff"/><rect x="70.5" y="423" width="35.25" height="35.25" fill="#42106E"/><polygon points="105.75,423 105.75,458.25 70.5,458.25" fill="#42106E"/><rect x="105.75" y="423" width="35.25" height="35.25" fill="#42106E"/><polygon points="105.75,423 141,423 105.75,458.25" fill="#42106E"/><rect x="70.5" y="458.25" width="35.25" height="35.25" fill="#42106E"/><polygon points="70.5,458.25 105.75,458.25 105.75,493.5" fill="#42106E"/><rect x="105.75" y="458.25" width="35.25" height="35.25" fill="#42106E"/><polygon points="105.75,458.25 141,493.5 105.75,493.5" fill="#9725FA"/><rect x="141" y="423" width="70.5" height="70.5" fill="#42106E"/><path d="M 141 423 A 70.5 70.5 0 0 1  211.5 493.5 L 141 423 A 70.5 70.5 0 0 0 211.5 493.5" fill="#9725FA"/><rect x="211.5" y="423" width="70.5" height="70.5" fill="#42106E"/><polygon points="211.5,423 282,423 282,493.5" fill="#42106E"/><rect x="282" y="423" width="70.5" height="70.5" fill="#42106E"/><path d="M 282 493.5 A 70.5 70.5 0 0 1  352.5 423 L 352.5 493.5" fill="#9725FA"/><rect x="352.5" y="423" width="70.5" height="70.5" fill="#42106E"/><polygon points="423,423 423,493.5 352.5,493.5" fill="#42106E"/><rect x="423" y="423" width="70.5" height="70.5" fill="#9725FA"/><rect x="423" y="423" width="70.5" height="70.5" fill="#42106E"/><rect x="493.5" y="423" width="70.5" height="70.5" fill="#ffffff"/><rect x="493.5" y="423" width="35.25" height="35.25" fill="#9725FA"/><polygon points="528.75,423 528.75,458.25 493.5,458.25" fill="#42106E"/><rect x="528.75" y="423" width="35.25" height="35.25" fill="#42106E"/><polygon points="528.75,423 564,458.25 528.75,458.25" fill="#9725FA"/><rect x="493.5" y="458.25" width="35.25" height="35.25" fill="#42106E"/><polygon points="493.5,458.25 528.75,458.25 493.5,493.5" fill="#42106E"/><rect x="528.75" y="458.25" width="35.25" height="35.25" fill="#42106E"/><polygon points="528.75,458.25 564,458.25 564,493.5" fill="#42106E"/><rect x="564" y="423" width="70.5" height="70.5" fill="#ffffff"/><rect x="564" y="423" width="35.25" height="35.25" fill="#42106E"/><path d="M 564 458.25 A 35.25 35.25 0 0 1  599.25 423 L 599.25 458.25" fill="#42106E"/><rect x="599.25" y="423" width="35.25" height="35.25" fill="#42106E"/><path d="M 599.25 423 A 35.25 35.25 0 0 1 634.5 458.25 L 599.25 458.25" fill="#9725FA"/><rect x="564" y="458.25" width="35.25" height="35.25" fill="#9725FA"/><path d="M 564 458.25 A 35.25 35.25 0 0 0 599.25 493.5 L 599.25 458.25" fill="#42106E"/><rect x="599.25" y="458.25" width="35.25" height="35.25" fill="#42106E"/><path d="M 599.25 493.5 A 35.25 35.25 0 0 0 634.5 458.25 L 599.25 458.25" fill="#42106E"/><rect x="634.5" y="423" width="70.5" height="70.5" fill="#ffffff"/><rect x="634.5" y="423" width="35.25" height="35.25" fill="#42106E"/><polygon points="669.75,423 669.75,458.25 634.5,458.25" fill="#9725FA"/><rect x="669.75" y="423" width="35.25" height="35.25" fill="#9725FA"/><polygon points="669.75,423 705,458.25 669.75,458.25" fill="#9725FA"/><rect x="634.5" y="458.25" width="35.25" height="35.25" fill="#42106E"/><polygon points="634.5,458.25 669.75,458.25 634.5,493.5" fill="#9725FA"/><rect x="669.75" y="458.25" width="35.25" height="35.25" fill="#42106E"/><polygon points="669.75,458.25 705,458.25 705,493.5" fill="#9725FA"/><rect x="705" y="423" width="70.5" height="70.5" fill="#ffffff"/><rect x="705" y="423" width="35.25" height="35.25" fill="#42106E"/><path d="M 705 458.25 A 35.25 35.25 0 0 0 740.25 423 L 705 423" fill="#9725FA"/><rect x="740.25" y="423" width="35.25" height="35.25" fill="#42106E"/><path d="M 740.25 423 A 35.25 35.25 0 0 0 775.5 458.25 L 775.5 423" fill="#9725FA"/><rect x="705" y="458.25" width="35.25" height="35.25" fill="#9725FA"/><path d="M 705 458.25 A 35.25 35.25 0 0 1 740.25 493.5 L 705 493.5" fill="#9725FA"/><rect x="740.25" y="458.25" width="35.25" height="35.25" fill="#9725FA"/><path d="M 740.25 493.5 A 35.25 35.25 0 0 1  775.5 458.25 L 775.5 493.5" fill="#42106E"/><rect x="775.5" y="423" width="70.5" height="70.5" fill="#ffffff"/><rect x="775.5" y="423" width="35.25" height="35.25" fill="#9725FA"/><path d="M 775.5 423 A 35.25 35.25 0 0 0 810.75 458.25 L 810.75 423" fill="#42106E"/><rect x="810.75" y="423" width="35.25" height="35.25" fill="#42106E"/><path d="M 810.75 458.25 A 35.25 35.25 0 0 0 846 423 L 810.75 423" fill="#42106E"/><rect x="775.5" y="458.25" width="35.25" height="35.25" fill="#42106E"/><path d="M 775.5 493.5 A 35.25 35.25 0 0 1  810.75 458.25 L 810.75 493.5" fill="#9725FA"/><rect x="810.75" y="458.25" width="35.25" height="35.25" fill="#9725FA"/><path d="M 810.75 458.25 A 35.25 35.25 0 0 1 846 493.5 L 810.75 493.5" fill="#42106E"/><rect x="846" y="423" width="70.5" height="70.5" fill="#ffffff"/><rect x="846" y="423" width="35.25" height="35.25" fill="#42106E"/><polygon points="881.25,423 881.25,458.25 846,458.25" fill="#9725FA"/><rect x="881.25" y="423" width="35.25" height="35.25" fill="#9725FA"/><polygon points="881.25,423 916.5,458.25 881.25,458.25" fill="#42106E"/><rect x="846" y="458.25" width="35.25" height="35.25" fill="#42106E"/><polygon points="846,458.25 881.25,458.25 846,493.5" fill="#9725FA"/><rect x="881.25" y="458.25" width="35.25" height="35.25" fill="#9725FA"/><polygon points="881.25,458.25 916.5,458.25 916.5,493.5" fill="#42106E"/><rect x="916.5" y="423" width="70.5" height="70.5" fill="#42106E"/><rect x="916.5" y="423" width="70.5" height="70.5" fill="#42106E"/><rect x="987" y="423" width="70.5" height="70.5" fill="#9725FA"/><polygon points="987,423 1057.5,423 987,493.5" fill="#9725FA"/><rect x="1057.5" y="423" width="70.5" height="70.5" fill="#9725FA"/><path d="M 1057.5 493.5 A 70.5 70.5 0 0 0 1128 423 L 1057.5 423" fill="#9725FA"/><rect x="0" y="493.5" width="70.5" height="70.5" fill="#ffffff"/><rect x="0" y="493.5" width="35.25" height="35.25" fill="#9725FA"/><path d="M 0 528.75 A 35.25 35.25 0 0 1 35.25 493.5 L 35.25 502.3125 A 26.4375 26.4375 0 0 0 8.8125 528.75" fill="#42106E"/><rect x="35.25" y="493.5" width="35.25" height="35.25" fill="#42106E"/><path d="M 35.25 493.5 A 35.25 35.25 0 0 1 70.5 528.75 L 61.6875 528.75 A 26.4375 26.4375 0 0 0 35.25 502.3125" fill="#9725FA"/><rect x="0" y="528.75" width="35.25" height="35.25" fill="#42106E"/><path d="M 0 528.75 A 35.25 35.25 0 0 0 35.25 564 L 35.25 555.1875 A 26.4375 26.4375 0 0 1 8.8125 528.75" fill="#42106E"/><rect x="35.25" y="528.75" width="35.25" height="35.25" fill="#42106E"/><path d="M 35.25 564 A 35.25 35.25 0 0 0 70.5 528.75 L 61.6875 528.75 A 26.4375 26.4375 0 0 1 35.25 555.1875" fill="#42106E"/><rect x="70.5" y="493.5" width="70.5" height="70.5" fill="#42106E"/><rect x="70.5" y="493.5" width="70.5" height="70.5" fill="#42106E"/><rect x="141" y="493.5" width="70.5" height="70.5" fill="#ffffff"/><rect x="141" y="493.5" width="35.25" height="35.25" fill="#9725FA"/><path d="M 141 528.75 A 35.25 35.25 0 0 1 176.25 493.5 L 176.25 502.3125 A 26.4375 26.4375 0 0 0 149.8125 528.75" fill="#9725FA"/><rect x="176.25" y="493.5" width="35.25" height="35.25" fill="#9725FA"/><path d="M 176.25 493.5 A 35.25 35.25 0 0 1 211.5 528.75 L 202.6875 528.75 A 26.4375 26.4375 0 0 0 176.25 502.3125" fill="#9725FA"/><rect x="141" y="528.75" width="35.25" height="35.25" fill="#9725FA"/><path d="M 141 528.75 A 35.25 35.25 0 0 0 176.25 564 L 176.25 555.1875 A 26.4375 26.4375 0 0 1 149.8125 528.75" fill="#42106E"/><rect x="176.25" y="528.75" width="35.25" height="35.25" fill="#42106E"/><path d="M 176.25 564 A 35.25 35.25 0 0 0 211.5 528.75 L 202.6875 528.75 A 26.4375 26.4375 0 0 1 176.25 555.1875" fill="#9725FA"/><rect x="211.5" y="493.5" width="70.5" height="70.5" fill="#9725FA"/><rect x="211.5" y="493.5" width="70.5" height="70.5" fill="#42106E"/><rect x="282" y="493.5" width="70.5" height="70.5" fill="#ffffff"/><rect x="282" y="493.5" width="35.25" height="35.25" fill="#42106E"/><path d="M 282 493.5 A 35.25 35.25 0 0 1 317.25 528.75 L 282 528.75" fill="#42106E"/><rect x="317.25" y="493.5" width="35.25" height="35.25" fill="#42106E"/><path d="M 317.25 528.75 A 35.25 35.25 0 0 1  352.5 493.5 L 352.5 528.75" fill="#9725FA"/><rect x="282" y="528.75" width="35.25" height="35.25" fill="#9725FA"/><path d="M 282 564 A 35.25 35.25 0 0 0 317.25 528.75 L 282 528.75" fill="#42106E"/><rect x="317.25" y="528.75" width="35.25" height="35.25" fill="#42106E"/><path d="M 317.25 528.75 A 35.25 35.25 0 0 0 352.5 564 L 352.5 528.75" fill="#42106E"/><rect x="352.5" y="493.5" width="70.5" height="70.5" fill="#ffffff"/><rect x="352.5" y="493.5" width="35.25" height="35.25" fill="#42106E"/><path d="M 352.5 528.75 A 35.25 35.25 0 0 1 387.75 493.5 L 387.75 502.3125 A 26.4375 26.4375 0 0 0 361.3125 528.75" fill="#9725FA"/><rect x="387.75" y="493.5" width="35.25" height="35.25" fill="#42106E"/><path d="M 387.75 493.5 A 35.25 35.25 0 0 1 423 528.75 L 414.1875 528.75 A 26.4375 26.4375 0 0 0 387.75 502.3125" fill="#42106E"/><rect x="352.5" y="528.75" width="35.25" height="35.25" fill="#9725FA"/><path d="M 352.5 528.75 A 35.25 35.25 0 0 0 387.75 564 L 387.75 555.1875 A 26.4375 26.4375 0 0 1 361.3125 528.75" fill="#9725FA"/><rect x="387.75" y="528.75" width="35.25" height="35.25" fill="#9725FA"/><path d="M 387.75 564 A 35.25 35.25 0 0 0 423 528.75 L 414.1875 528.75 A 26.4375 26.4375 0 0 1 387.75 555.1875" fill="#9725FA"/><rect x="423" y="493.5" width="70.5" height="70.5" fill="#ffffff"/><rect x="423" y="493.5" width="35.25" height="35.25" fill="#42106E"/><path d="M 423 493.5 A 35.25 35.25 0 0 0 458.25 528.75 L 458.25 493.5" fill="#42106E"/><rect x="458.25" y="493.5" width="35.25" height="35.25" fill="#42106E"/><path d="M 458.25 528.75 A 35.25 35.25 0 0 0 493.5 493.5 L 458.25 493.5" fill="#42106E"/><rect x="423" y="528.75" width="35.25" height="35.25" fill="#9725FA"/><path d="M 423 564 A 35.25 35.25 0 0 1  458.25 528.75 L 458.25 564" fill="#9725FA"/><rect x="458.25" y="528.75" width="35.25" height="35.25" fill="#9725FA"/><path d="M 458.25 528.75 A 35.25 35.25 0 0 1 493.5 564 L 458.25 564" fill="#42106E"/><rect x="493.5" y="493.5" width="70.5" height="70.5" fill="#ffffff"/><rect x="493.5" y="493.5" width="35.25" height="35.25" fill="#42106E"/><path d="M 493.5 528.75 A 35.25 35.25 0 0 1  528.75 493.5 L 528.75 528.75" fill="#9725FA"/><rect x="528.75" y="493.5" width="35.25" height="35.25" fill="#9725FA"/><path d="M 528.75 493.5 A 35.25 35.25 0 0 1 564 528.75 L 528.75 528.75" fill="#42106E"/><rect x="493.5" y="528.75" width="35.25" height="35.25" fill="#42106E"/><path d="M 493.5 528.75 A 35.25 35.25 0 0 0 528.75 564 L 528.75 528.75" fill="#9725FA"/><rect x="528.75" y="528.75" width="35.25" height="35.25" fill="#42106E"/><path d="M 528.75 564 A 35.25 35.25 0 0 0 564 528.75 L 528.75 528.75" fill="#9725FA"/><rect x="564" y="493.5" width="70.5" height="70.5" fill="#ffffff"/><rect x="564" y="493.5" width="35.25" height="35.25" fill="#9725FA"/><circle cx="581.625" cy="511.125" r="17.625" fill="#42106E"/><rect x="599.25" y="493.5" width="35.25" height="35.25" fill="#9725FA"/><rect x="599.25" y="493.5" width="35.25" height="35.25" fill="#9725FA"/><rect x="564" y="528.75" width="35.25" height="35.25" fill="#9725FA"/><circle cx="581.625" cy="546.375" r="17.625" fill="#42106E"/><rect x="599.25" y="528.75" width="35.25" height="35.25" fill="#9725FA"/><rect x="599.25" y="528.75" width="35.25" height="35.25" fill="#42106E"/><rect x="634.5" y="493.5" width="70.5" height="70.5" fill="#9725FA"/><rect x="634.5" y="493.5" width="70.5" height="70.5" fill="#9725FA"/><rect x="705" y="493.5" width="70.5" height="70.5" fill="#42106E"/><polygon points="705,493.5 775.5,493.5 705,564" fill="#9725FA"/><rect x="775.5" y="493.5" width="70.5" height="70.5" fill="#42106E"/><rect x="775.5" y="493.5" width="70.5" height="70.5" fill="#42106E"/><rect x="846" y="493.5" width="70.5" height="70.5" fill="#ffffff"/><rect x="846" y="493.5" width="35.25" height="35.25" fill="#42106E"/><path d="M 846 493.5 A 35.25 35.25 0 0 1 881.25 528.75 L 846 528.75" fill="#42106E"/><rect x="881.25" y="493.5" width="35.25" height="35.25" fill="#42106E"/><path d="M 881.25 528.75 A 35.25 35.25 0 0 1  916.5 493.5 L 916.5 528.75" fill="#42106E"/><rect x="846" y="528.75" width="35.25" height="35.25" fill="#42106E"/><path d="M 846 564 A 35.25 35.25 0 0 0 881.25 528.75 L 846 528.75" fill="#9725FA"/><rect x="881.25" y="528.75" width="35.25" height="35.25" fill="#9725FA"/><path d="M 881.25 528.75 A 35.25 35.25 0 0 0 916.5 564 L 916.5 528.75" fill="#42106E"/><rect x="916.5" y="493.5" width="70.5" height="70.5" fill="#9725FA"/><polygon points="916.5,493.5 987,493.5 987,564" fill="#9725FA"/><rect x="987" y="493.5" width="70.5" height="70.5" fill="#ffffff"/><rect x="987" y="493.5" width="35.25" height="35.25" fill="#9725FA"/><polygon points="1022.25,493.5 1022.25,528.75 987,528.75" fill="#9725FA"/><rect x="1022.25" y="493.5" width="35.25" height="35.25" fill="#42106E"/><polygon points="1022.25,493.5 1057.5,528.75 1022.25,528.75" fill="#9725FA"/><rect x="987" y="528.75" width="35.25" height="35.25" fill="#42106E"/><polygon points="987,528.75 1022.25,528.75 987,564" fill="#42106E"/><rect x="1022.25" y="528.75" width="35.25" height="35.25" fill="#9725FA"/><polygon points="1022.25,528.75 1057.5,528.75 1057.5,564" fill="#9725FA"/><rect x="1057.5" y="493.5" width="70.5" height="70.5" fill="#ffffff"/><rect x="1057.5" y="493.5" width="35.25" height="35.25" fill="#42106E"/><path d="M 1057.5 528.75 A 35.25 35.25 0 0 1 1092.75 493.5 L 1092.75 502.3125 A 26.4375 26.4375 0 0 0 1066.3125 528.75" fill="#42106E"/><rect x="1092.75" y="493.5" width="35.25" height="35.25" fill="#42106E"/><path d="M 1092.75 493.5 A 35.25 35.25 0 0 1 1128 528.75 L 1119.1875 528.75 A 26.4375 26.4375 0 0 0 1092.75 502.3125" fill="#42106E"/><rect x="1057.5" y="528.75" width="35.25" height="35.25" fill="#42106E"/><path d="M 1057.5 528.75 A 35.25 35.25 0 0 0 1092.75 564 L 1092.75 555.1875 A 26.4375 26.4375 0 0 1 1066.3125 528.75" fill="#9725FA"/><rect x="1092.75" y="528.75" width="35.25" height="35.25" fill="#42106E"/><path d="M 1092.75 564 A 35.25 35.25 0 0 0 1128 528.75 L 1119.1875 528.75 A 26.4375 26.4375 0 0 1 1092.75 555.1875" fill="#9725FA"/><rect x="0" y="564" width="70.5" height="70.5" fill="#9725FA"/><rect x="0" y="564" width="70.5" height="70.5" fill="#9725FA"/><rect x="70.5" y="564" width="70.5" height="70.5" fill="#ffffff"/><rect x="70.5" y="564" width="35.25" height="35.25" fill="#9725FA"/><polygon points="105.75,564 105.75,599.25 70.5,599.25" fill="#9725FA"/><rect x="105.75" y="564" width="35.25" height="35.25" fill="#42106E"/><polygon points="105.75,564 141,599.25 105.75,599.25" fill="#9725FA"/><rect x="70.5" y="599.25" width="35.25" height="35.25" fill="#42106E"/><polygon points="70.5,599.25 105.75,599.25 70.5,634.5" fill="#42106E"/><rect x="105.75" y="599.25" width="35.25" height="35.25" fill="#9725FA"/><polygon points="105.75,599.25 141,599.25 141,634.5" fill="#42106E"/><rect x="141" y="564" width="70.5" height="70.5" fill="#ffffff"/><rect x="141" y="564" width="35.25" height="35.25" fill="#9725FA"/><path d="M 141 599.25 A 35.25 35.25 0 0 0 176.25 564 L 141 564" fill="#9725FA"/><rect x="176.25" y="564" width="35.25" height="35.25" fill="#9725FA"/><path d="M 176.25 564 A 35.25 35.25 0 0 0 211.5 599.25 L 211.5 564" fill="#42106E"/><rect x="141" y="599.25" width="35.25" height="35.25" fill="#9725FA"/><path d="M 141 599.25 A 35.25 35.25 0 0 1 176.25 634.5 L 141 634.5" fill="#42106E"/><rect x="176.25" y="599.25" width="35.25" height="35.25" fill="#9725FA"/><path d="M 176.25 634.5 A 35.25 35.25 0 0 1  211.5 599.25 L 211.5 634.5" fill="#42106E"/><rect x="211.5" y="564" width="70.5" height="70.5" fill="#42106E"/><path d="M 211.5 564 A 70.5 70.5 0 0 1  282 634.5 L 211.5 564 A 70.5 70.5 0 0 0 282 634.5" fill="#42106E"/><rect x="282" y="564" width="70.5" height="70.5" fill="#ffffff"/><rect x="282" y="564" width="35.25" height="35.25" fill="#42106E"/><circle cx="299.625" cy="581.625" r="17.625" fill="#42106E"/><rect x="317.25" y="564" width="35.25" height="35.25" fill="#9725FA"/><rect x="317.25" y="564" width="35.25" height="35.25" fill="#9725FA"/><rect x="282" y="599.25" width="35.25" height="35.25" fill="#42106E"/><circle cx="299.625" cy="616.875" r="17.625" fill="#42106E"/><rect x="317.25" y="599.25" width="35.25" height="35.25" fill="#9725FA"/><rect x="317.25" y="599.25" width="35.25" height="35.25" fill="#9725FA"/><rect x="352.5" y="564" width="70.5" height="70.5" fill="#9725FA"/><polygon points="352.5,564 423,564 423,634.5" fill="#42106E"/><rect x="423" y="564" width="70.5" height="70.5" fill="#9725FA"/><rect x="423" y="564" width="70.5" height="70.5" fill="#42106E"/><rect x="493.5" y="564" width="70.5" height="70.5" fill="#42106E"/><polygon points="564,564 564,634.5 493.5,634.5" fill="#9725FA"/><rect x="564" y="564" width="70.5" height="70.5" fill="#42106E"/><path d="M 564 564 A 70.5 70.5 0 0 1 634.5 634.5 L 564 634.5" fill="#9725FA"/><rect x="634.5" y="564" width="70.5" height="70.5" fill="#9725FA"/><path d="M 634.5 634.5 A 70.5 70.5 0 0 1  705 564 L 705 634.5" fill="#9725FA"/><rect x="705" y="564" width="70.5" height="70.5" fill="#42106E"/><rect x="705" y="564" width="70.5" height="70.5" fill="#9725FA"/><rect x="775.5" y="564" width="70.5" height="70.5" fill="#42106E"/><polygon points="846,564 846,634.5 775.5,634.5" fill="#42106E"/><rect x="846" y="564" width="70.5" height="70.5" fill="#42106E"/><rect x="846" y="564" width="70.5" height="70.5" fill="#9725FA"/><rect x="916.5" y="564" width="70.5" height="70.5" fill="#ffffff"/><rect x="916.5" y="564" width="35.25" height="35.25" fill="#9725FA"/><polygon points="951.75,564 951.75,599.25 916.5,599.25" fill="#42106E"/><rect x="951.75" y="564" width="35.25" height="35.25" fill="#9725FA"/><polygon points="951.75,564 987,599.25 951.75,599.25" fill="#42106E"/><rect x="916.5" y="599.25" width="35.25" height="35.25" fill="#9725FA"/><polygon points="916.5,599.25 951.75,599.25 951.75,634.5" fill="#9725FA"/><rect x="951.75" y="599.25" width="35.25" height="35.25" fill="#9725FA"/><polygon points="951.75,599.25 987,599.25 951.75,634.5" fill="#42106E"/><rect x="987" y="564" width="70.5" height="70.5" fill="#9725FA"/><polygon points="1057.5,564 1057.5,634.5 987,634.5" fill="#42106E"/><rect x="1057.5" y="564" width="70.5" height="70.5" fill="#ffffff"/><rect x="1057.5" y="564" width="35.25" height="35.25" fill="#42106E"/><path d="M 1057.5 564 A 35.25 35.25 0 0 0 1092.75 599.25 L 1092.75 564" fill="#42106E"/><rect x="1092.75" y="564" width="35.25" height="35.25" fill="#9725FA"/><path d="M 1092.75 599.25 A 35.25 35.25 0 0 0 1128 564 L 1092.75 564" fill="#9725FA"/><rect x="1057.5" y="599.25" width="35.25" height="35.25" fill="#42106E"/><path d="M 1057.5 634.5 A 35.25 35.25 0 0 1  1092.75 599.25 L 1092.75 634.5" fill="#9725FA"/><rect x="1092.75" y="599.25" width="35.25" height="35.25" fill="#42106E"/><path d="M 1092.75 599.25 A 35.25 35.25 0 0 1 1128 634.5 L 1092.75 634.5" fill="#9725FA"/><rect x="0" y="634.5" width="70.5" height="70.5" fill="#ffffff"/><rect x="0" y="634.5" width="35.25" height="35.25" fill="#42106E"/><path d="M 0 669.75 A 35.25 35.25 0 0 1 35.25 634.5 L 35.25 643.3125 A 26.4375 26.4375 0 0 0 8.8125 669.75" fill="#42106E"/><rect x="35.25" y="634.5" width="35.25" height="35.25" fill="#42106E"/><path d="M 35.25 634.5 A 35.25 35.25 0 0 1 70.5 669.75 L 61.6875 669.75 A 26.4375 26.4375 0 0 0 35.25 643.3125" fill="#9725FA"/><rect x="0" y="669.75" width="35.25" height="35.25" fill="#42106E"/><path d="M 0 669.75 A 35.25 35.25 0 0 0 35.25 705 L 35.25 696.1875 A 26.4375 26.4375 0 0 1 8.8125 669.75" fill="#9725FA"/><rect x="35.25" y="669.75" width="35.25" height="35.25" fill="#42106E"/><path d="M 35.25 705 A 35.25 35.25 0 0 0 70.5 669.75 L 61.6875 669.75 A 26.4375 26.4375 0 0 1 35.25 696.1875" fill="#42106E"/><rect x="70.5" y="634.5" width="70.5" height="70.5" fill="#42106E"/><rect x="70.5" y="634.5" width="70.5" height="70.5" fill="#42106E"/><rect x="141" y="634.5" width="70.5" height="70.5" fill="#42106E"/><rect x="141" y="634.5" width="70.5" height="70.5" fill="#9725FA"/><rect x="211.5" y="634.5" width="70.5" height="70.5" fill="#ffffff"/><rect x="211.5" y="634.5" width="35.25" height="35.25" fill="#42106E"/><path d="M 211.5 669.75 A 35.25 35.25 0 0 1  246.75 634.5 L 246.75 669.75" fill="#9725FA"/><rect x="246.75" y="634.5" width="35.25" height="35.25" fill="#9725FA"/><path d="M 246.75 634.5 A 35.25 35.25 0 0 1 282 669.75 L 246.75 669.75" fill="#42106E"/><rect x="211.5" y="669.75" width="35.25" height="35.25" fill="#9725FA"/><path d="M 211.5 669.75 A 35.25 35.25 0 0 0 246.75 705 L 246.75 669.75" fill="#42106E"/><rect x="246.75" y="669.75" width="35.25" height="35.25" fill="#9725FA"/><path d="M 246.75 705 A 35.25 35.25 0 0 0 282 669.75 L 246.75 669.75" fill="#9725FA"/><rect x="282" y="634.5" width="70.5" height="70.5" fill="#42106E"/><polygon points="352.5,634.5 352.5,705 282,705" fill="#9725FA"/><rect x="352.5" y="634.5" width="70.5" height="70.5" fill="#ffffff"/><rect x="352.5" y="634.5" width="35.25" height="35.25" fill="#9725FA"/><path d="M 352.5 669.75 A 35.25 35.25 0 0 1 387.75 634.5 L 387.75 643.3125 A 26.4375 26.4375 0 0 0 361.3125 669.75" fill="#42106E"/><rect x="387.75" y="634.5" width="35.25" height="35.25" fill="#9725FA"/><path d="M 387.75 634.5 A 35.25 35.25 0 0 1 423 669.75 L 414.1875 669.75 A 26.4375 26.4375 0 0 0 387.75 643.3125" fill="#9725FA"/><rect x="352.5" y="669.75" width="35.25" height="35.25" fill="#42106E"/><path d="M 352.5 669.75 A 35.25 35.25 0 0 0 387.75 705 L 387.75 696.1875 A 26.4375 26.4375 0 0 1 361.3125 669.75" fill="#42106E"/><rect x="387.75" y="669.75" width="35.25" height="35.25" fill="#42106E"/><path d="M 387.75 705 A 35.25 35.25 0 0 0 423 669.75 L 414.1875 669.75 A 26.4375 26.4375 0 0 1 387.75 696.1875" fill="#9725FA"/><rect x="423" y="634.5" width="70.5" height="70.5" fill="#ffffff"/><rect x="423" y="634.5" width="35.25" height="35.25" fill="#42106E"/><polygon points="458.25,634.5 458.25,669.75 423,669.75" fill="#9725FA"/><rect x="458.25" y="634.5" width="35.25" height="35.25" fill="#9725FA"/><polygon points="458.25,634.5 493.5,669.75 458.25,669.75" fill="#9725FA"/><rect x="423" y="669.75" width="35.25" height="35.25" fill="#42106E"/><polygon points="423,669.75 458.25,669.75 458.25,705" fill="#9725FA"/><rect x="458.25" y="669.75" width="35.25" height="35.25" fill="#42106E"/><polygon points="458.25,669.75 493.5,669.75 458.25,705" fill="#42106E"/><rect x="493.5" y="634.5" width="70.5" height="70.5" fill="#42106E"/><path d="M 493.5 634.5 A 70.5 70.5 0 0 1 564 705 L 493.5 705" fill="#42106E"/><rect x="564" y="634.5" width="70.5" height="70.5" fill="#42106E"/><polygon points="634.5,634.5 634.5,705 564,705" fill="#42106E"/><rect x="634.5" y="634.5" width="70.5" height="70.5" fill="#ffffff"/><rect x="634.5" y="634.5" width="35.25" height="35.25" fill="#42106E"/><path d="M 634.5 634.5 A 35.25 35.25 0 0 0 669.75 669.75 L 669.75 634.5" fill="#42106E"/><rect x="669.75" y="634.5" width="35.25" height="35.25" fill="#42106E"/><path d="M 669.75 669.75 A 35.25 35.25 0 0 0 705 634.5 L 669.75 634.5" fill="#42106E"/><rect x="634.5" y="669.75" width="35.25" height="35.25" fill="#9725FA"/><path d="M 634.5 705 A 35.25 35.25 0 0 1  669.75 669.75 L 669.75 705" fill="#9725FA"/><rect x="669.75" y="669.75" width="35.25" height="35.25" fill="#42106E"/><path d="M 669.75 669.75 A 35.25 35.25 0 0 1 705 705 L 669.75 705" fill="#9725FA"/><rect x="705" y="634.5" width="70.5" height="70.5" fill="#42106E"/><polygon points="705,634.5 775.5,634.5 705,705" fill="#9725FA"/><rect x="775.5" y="634.5" width="70.5" height="70.5" fill="#ffffff"/><rect x="775.5" y="634.5" width="35.25" height="35.25" fill="#9725FA"/><circle cx="793.125" cy="652.125" r="17.625" fill="#42106E"/><rect x="810.75" y="634.5" width="35.25" height="35.25" fill="#9725FA"/><rect x="810.75" y="634.5" width="35.25" height="35.25" fill="#9725FA"/><rect x="775.5" y="669.75" width="35.25" height="35.25" fill="#42106E"/><circle cx="793.125" cy="687.375" r="17.625" fill="#9725FA"/><rect x="810.75" y="669.75" width="35.25" height="35.25" fill="#42106E"/><rect x="810.75" y="669.75" width="35.25" height="35.25" fill="#42106E"/><rect x="846" y="634.5" width="70.5" height="70.5" fill="#9725FA"/><polygon points="916.5,634.5 916.5,705 846,705" fill="#9725FA"/><rect x="916.5" y="634.5" width="70.5" height="70.5" fill="#ffffff"/><rect x="916.5" y="634.5" width="35.25" height="35.25" fill="#9725FA"/><path d="M 916.5 634.5 A 35.25 35.25 0 0 0 951.75 669.75 L 951.75 634.5" fill="#9725FA"/><rect x="951.75" y="634.5" width="35.25" height="35.25" fill="#42106E"/><path d="M 951.75 669.75 A 35.25 35.25 0 0 0 987 634.5 L 951.75 634.5" fill="#9725FA"/><rect x="916.5" y="669.75" width="35.25" height="35.25" fill="#9725FA"/><path d="M 916.5 705 A 35.25 35.25 0 0 1  951.75 669.75 L 951.75 705" fill="#42106E"/><rect x="951.75" y="669.75" width="35.25" height="35.25" fill="#9725FA"/><path d="M 951.75 669.75 A 35.25 35.25 0 0 1 987 705 L 951.75 705" fill="#9725FA"/><rect x="987" y="634.5" width="70.5" height="70.5" fill="#9725FA"/><path d="M 987 634.5 A 70.5 70.5 0 0 1  1057.5 705 L 987 634.5 A 70.5 70.5 0 0 0 1057.5 705" fill="#9725FA"/><rect x="1057.5" y="634.5" width="70.5" height="70.5" fill="#ffffff"/><rect x="1057.5" y="634.5" width="35.25" height="35.25" fill="#42106E"/><circle cx="1075.125" cy="652.125" r="17.625" fill="#9725FA"/><rect x="1092.75" y="634.5" width="35.25" height="35.25" fill="#9725FA"/><rect x="1092.75" y="634.5" width="35.25" height="35.25" fill="#9725FA"/><rect x="1057.5" y="669.75" width="35.25" height="35.25" fill="#42106E"/><circle cx="1075.125" cy="687.375" r="17.625" fill="#9725FA"/><rect x="1092.75" y="669.75" width="35.25" height="35.25" fill="#42106E"/><rect x="1092.75" y="669.75" width="35.25" height="35.25" fill="#9725FA"/></g></svg>